# AST/ASF file generated using VICON BodyLanguage
# -----------------------------------------------
:version 1.10
:name VICON
:units
  mass 1.0
  length 0.45
  angle deg
:documentation
   .ast/.asf automatically generated from VICON data using
   VICON BodyBuilder and BodyLanguage model FoxedUp or BRILLIANT.MOD
:root
   order TX TY TZ RX RY RZ
   axis XYZ
   position 0 0 0  
   orientation 0 0 0 
:bonedata
  begin
     id 1 
     name lhipjoint
     direction 0.692814 -0.645514 0.321437 
     length 2.38754 
     axis 0 0 0  XYZ
  end
  begin
     id 2 
     name lfemur
     direction 0.34202 -0.939693 0  
     length 6.41921  
     axis 0 0 20  XYZ
    dof rx ry rz
    limits (-160.0 20.0)
           (-70.0 70.0)
           (-60.0 70.0)
  end
  begin
     id 3 
     name ltibia
     direction 0.34202 -0.939693 0   
     length 6.98247   
     axis 0 0 20   XYZ
    dof rx
    limits (-10.0 170.0)
  end
  begin
     id 4 
     name lfoot
     direction 0.0947186 -0.260237 0.960888   
     length 1.83034   
     axis -90 7.62852e-016 20   XYZ
    dof rx rz
    limits (-45.0 90.0)
           (-70.0 20.0)
  end
  begin
     id 5 
     name ltoes
     direction 1.53538e-011 -4.21952e-011 1   
     length 0.920499   
     axis -90 7.62852e-016 20   XYZ
    dof rx
    limits (-90.0 20.0)
  end
  begin
     id 6 
     name rhipjoint
     direction -0.631686 -0.693949 0.345555   
     length 2.2209  
     axis 0 0 0  XYZ 
  end
  begin
     id 7 
     name rfemur
     direction -0.34202 -0.939693 0   
     length 6.49542   
     axis 0 0 -20   XYZ
    dof rx ry rz
    limits (-160.0 20.0)
           (-70.0 70.0)
           (-70.0 60.0)
  end
  begin
     id 8 
     name rtibia
     direction -0.34202 -0.939693 0   
     length 7.21712   
     axis 0 0 -20   XYZ
    dof rx
    limits (-10.0 170.0)
 end
 begin
     id 9 
     name rfoot
     direction -0.0825378 -0.226771 0.970444   
     length 1.89724  
     axis -90 -7.62852e-016 -20   XYZ
    dof rx rz
    limits (-45.0 90.0)
           (-20.0 70.0)
  end
  begin
     id 10 
     name rtoes
     direction -1.53515e-011 -4.22016e-011 1   
     length 0.955868   
     axis -90 -7.62852e-016 -20   XYZ
    dof rx
    limits (-90.0 20.0)
  end
  begin
     id 11 
     name lowerback
     direction -0.0104711 0.984802 -0.173368   
     length 1.84931   
     axis 0 0 0   XYZ
    dof rx ry rz
    limits (-20.0 45.0)
           (-30.0 30.0)
           (-30.0 30.0)
  end
  begin
     id 12 
     name upperback
     direction -0.00286433 0.999996 -0.000382853   
     length 1.85768   
     axis 0 0 0   XYZ
    dof rx ry rz
    limits (-20.0 45.0)
           (-30.0 30.0)
           (-30.0 30.0)
  end
  begin
     id 13 
     name thorax
     direction 0.00167534 0.996793 0.0800069   
     length 1.92   
     axis 0 0 0   XYZ
    dof rx ry rz
    limits (-20.0 45.0)
           (-30.0 30.0)
           (-30.0 30.0)
  end
  begin
     id 14 
     name lowerneck
     direction -0.0672491 0.995415 0.068018   
     length 1.58923   
     axis 0 0 0   XYZ
    dof rx ry rz
    limits (-20.0 45.0)
           (-30.0 30.0)
           (-30.0 30.0)
  end
  begin
     id 15 
     name upperneck
     direction 0.0958019 0.982476 -0.159884   
     length 1.60189   
     axis 0 0 0   XYZ
    dof rx ry rz
    limits (-20.0 45.0)
           (-30.0 30.0)
           (-30.0 30.0)
  end
  begin
     id 16
     name head
     direction 0.032989 0.997338 -0.0650226  
     length 1.61681  
     axis 0 0 0   XYZ
    dof rx ry rz
    limits (-20.0 45.0)
           (-30.0 30.0)
           (-30.0 30.0)
  end
  begin
     id 17 
     name lclavicle
     direction 0.954279 0.298875 -0.00496069  
     length 2.99449  
     axis 0 0 0   XYZ
    dof ry rz
    limits (-20.0 10.0)
           (0.0 20.0)
  end
  begin
     id 18 
     name lhumerus
     direction 1 -4.48985e-011 -4.2057e-027   
     length 4.79185   
     axis 180 -30 -90   XYZ
    dof rx ry rz
    limits (-60.0 90.0)
           (-90.0 90.0)
           (-90.0 90.0)
  end
  begin
     id 19
     name lradius
     direction 1 -4.48945e-011 1.15441e-028   
     length 2.65553   
     axis 180 -30 -90   XYZ
    dof rx
    limits (-10.0 170.0)
  end
  begin
     id 20
     name lwrist
     direction 1 -4.4899e-011 4.8894e-028   
     length 1.32777   
     axis -2.56392e-016 90 90   XYZ
    dof ry
    limits (-180.0 0.0)
 end
  begin
     id 21 
     name lhand
     direction 1 -4.48908e-011 9.7788e-028   
     length 0.743904   
     axis -6.23971e-016 90 90   XYZ
    dof rx rz
    limits (-90.0 90.0)
           (-45.0 45.0)
  end
  begin
     id 22 
     name lfingers
     direction 1 -4.49068e-011 1.95576e-027   
     length 0.599754   
     axis -1.24794e-015 90 90   XYZ
    dof rx
    limits (0.0 90.0)
  end
  begin
     id 23
     name lthumb
     direction 0.707107 -6.34883e-011 0.707107   
     length 0.861131   
     axis -90 45 2.85299e-015   XYZ
    dof rx rz
    limits (-45.0 45.0)
           (-45.0 45.0)
  end
  begin
     id 24 
     name rclavicle
     direction -0.957921 0.286916 0.00811568   
     length 3.06817  
     axis 0 0 0   XYZ 
    dof ry rz
    limits (-10.0 20.0)
           (-20.0 0.0)
  end
  begin
     id 25 
     name rhumerus
     direction -1 -4.48971e-011 -3.07942e-027  
     length 4.77254   
     axis 180 30 90   XYZ
    dof rx ry rz
    limits (-90.0 60.0)
           (-90.0 90.0)
           (-90.0 90.0)
  end
  begin
     id 26 
     name rradius
     direction -1 -4.48957e-011 -9.6815e-028   
     length 2.75995   
     axis 180 30 90   XYZ
    dof rx
    limits (-10.0 170.0)
  end
  begin
     id 27 
     name rwrist
     direction -1 -4.48979e-011 4.8894e-028   
     length 1.37997   
     axis -2.56392e-016 -90 -90   XYZ
    dof ry
    limits (-180.0 0.0)
  end
  begin
     id 28
     name rhand
     direction -1 -4.48906e-011 9.7788e-028   
     length 0.701619   
     axis -6.23971e-016 -90 -90   XYZ
    dof rx rz
    limits (-90.0 90.0)
           (-45.0 45.0)
  end
  begin
     id 29
     name rfingers
     direction -1 -4.49018e-011 1.95576e-027   
     length 0.565663   
     axis -1.24794e-015 -90 -90   XYZ
    dof rx
    limits (0.0 90.0)
  end
  begin
     id 30
     name rthumb
     direction -0.707107 -6.34881e-011 0.707107   
     length 0.812183   
     axis -90 -45 -2.85299e-015   XYZ
    dof rx rz
    limits (-45.0 45.0)
           (-45.0 45.0)
  end
:hierarchy
  begin
    root lhipjoint rhipjoint lowerback
    lhipjoint lfemur
    lfemur ltibia
    ltibia lfoot
    lfoot ltoes
    rhipjoint rfemur
    rfemur rtibia
    rtibia rfoot
    rfoot rtoes
    lowerback upperback
    upperback thorax
    thorax lowerneck lclavicle rclavicle
    lowerneck upperneck
    upperneck head
    lclavicle lhumerus
    lhumerus lradius
    lradius lwrist
    lwrist lhand lthumb
    lhand lfingers
    rclavicle rhumerus
    rhumerus rradius
    rradius rwrist
    rwrist rhand rthumb
    rhand rfingers
  end

#!OML:ASF F:\VICON\USERDATA\INSTALL\rory3\rory3.ASF
:FULLY-SPECIFIED
:DEGREES
1141
root 0.497878 15.9239 1.22453 1.32997 -0.48267 0.796856
lowerback 6.564 -1.29165 -1.03361
upperback -7.28559 -1.73196 1.40438
thorax -11.4458 -0.674701 2.37949
lowerneck 0.0374252 -13.9399 -20.9433
upperneck 22.687 -20.8886 11.4925
head 10.7652 -10.7285 4.92595
rclavicle -2.68359e-014 5.96354e-015
rhumerus 32.5236 -76.2539 -31.7632
rradius 26.9789
rwrist -17.9244
rhand -2.4682 10.9472
rfingers 7.12502
rthumb 23.2243 -17.6725
lclavicle -2.68359e-014 5.96354e-015
lhumerus -20.5099 68.4705 -18.5078
lradius 33.2939
lwrist 35.984
lhand 1.80699 18.8413
lfingers 7.12502
lthumb 27.32 46.8817
rfemur -1.13873 11.0012 15.6821
rtibia 21.2838
rfoot -16.5316 -14.8832
rtoes -11.2919
lfemur 2.88265 -8.40497 -19.8969
ltibia 13.6332
lfoot -13.7702 7.88362
ltoes -9.11665
1142
root 0.493578 15.9223 1.21148 1.2953 -0.661249 0.83438
lowerback 6.4486 -1.33557 -1.01325
upperback -7.07664 -1.78555 1.43415
thorax -11.1354 -0.707425 2.39821
lowerneck 0.244187 -14.07 -20.9865
upperneck 22.721 -21.0992 11.4127
head 10.7756 -10.8432 4.87855
rclavicle 5.26779e-015 -1.98785e-014
rhumerus 32.0201 -76.5055 -31.9365
rradius 26.8962
rwrist -17.8485
rhand -2.46371 10.8653
rfingers 7.12502
rthumb 23.2286 -17.7538
lclavicle 5.26779e-015 -1.98785e-014
lhumerus -21.8233 68.3086 -19.0762
lradius 33.2266
lwrist 35.7137
lhand 1.79774 18.9756
lfingers 7.12502
lthumb 27.3111 47.0173
rfemur -1.32443 10.966 15.6082
rtibia 21.5218
rfoot -16.5888 -14.6628
rtoes -11.2249
lfemur 2.88263 -8.41337 -19.9524
ltibia 13.6802
lfoot -13.8388 8.06869
ltoes -8.96407
1143
root 0.485818 15.9174 1.1973 1.24327 -0.893311 0.964405
lowerback 6.42959 -1.34147 -1.12703
upperback -6.90389 -1.80692 1.43445
thorax -10.9244 -0.713368 2.45973
lowerneck 0.462216 -14.1992 -20.9447
upperneck 22.8082 -21.2961 11.229
head 10.7775 -10.9541 4.78699
rclavicle -2.28602e-015 -2.5842e-014
rhumerus 31.411 -76.8042 -32.0012
rradius 26.838
rwrist -17.6414
rhand -2.52092 10.7831
rfingers 7.12502
rthumb 23.1737 -17.8429
lclavicle -2.28602e-015 -2.5842e-014
lhumerus -22.9121 67.9993 -19.3867
lradius 33.1672
lwrist 35.4297
lhand 2.03136 19.1672
lfingers 7.12502
lthumb 27.5346 47.1736
rfemur -1.51685 11.0566 15.4602
rtibia 21.7315
rfoot -16.5144 -14.7231
rtoes -13.7218
lfemur 2.87524 -8.35801 -20.0947
ltibia 13.7645
lfoot -13.8886 8.24146
ltoes -9.05987
1144
root 0.47963 15.9133 1.18447 1.1827 -1.07124 0.996388
lowerback 6.51136 -1.38122 -1.13821
upperback -6.8133 -1.85762 1.48651
thorax -10.8675 -0.736002 2.53014
lowerneck 0.738485 -14.2813 -21.032
upperneck 22.9627 -21.4427 11.0597
head 10.8029 -11.0547 4.73116
rclavicle -5.26779e-015 9.14409e-015
rhumerus 28.8641 -76.4932 -30.0741
rradius 26.8218
rwrist -17.9252
rhand -2.73755 10.8263
rfingers 7.12502
rthumb 22.9658 -17.8257
lclavicle -5.26779e-015 9.14409e-015
lhumerus -24.0489 67.3732 -19.6614
lradius 33.2149
lwrist 35.3524
lhand 2.26262 19.3697
lfingers 7.12502
lthumb 27.7557 47.3407
rfemur -1.65343 11.0669 15.4224
rtibia 21.9124
rfoot -16.427 -14.7024
rtoes -15.208
lfemur 2.84343 -8.22877 -20.1184
ltibia 13.9033
lfoot -13.9207 8.27167
ltoes -9.10139
1145
root 0.474048 15.9121 1.17217 1.1248 -1.21881 0.988662
lowerback 6.65431 -1.43814 -1.10085
upperback -6.76707 -1.92329 1.56826
thorax -10.8972 -0.766368 2.61144
lowerneck 1.04348 -14.338 -21.1826
upperneck 23.1076 -21.5478 10.8676
head 10.8174 -11.1445 4.6855
rclavicle 6.4605e-015 -3.33958e-014
rhumerus 26.8946 -76.1889 -28.6798
rradius 26.7546
rwrist -18.0424
rhand -2.72373 10.9938
rfingers 7.12502
rthumb 22.9791 -17.6566
lclavicle 6.4605e-015 -3.33958e-014
lhumerus -25.259 66.8515 -20.0142
lradius 33.2558
lwrist 35.2546
lhand 2.32731 19.3828
lfingers 7.12502
lthumb 27.8176 47.3438
rfemur -1.76482 11.1036 15.4311
rtibia 22.0972
rfoot -16.4566 -14.5372
rtoes -14.9926
lfemur 2.82661 -8.15643 -20.1022
ltibia 14.0323
lfoot -13.9494 8.30087
ltoes -8.87578
1146
root 0.467555 15.9111 1.15722 1.08408 -1.39516 1.03284
lowerback 6.76031 -1.45646 -1.10518
upperback -6.68116 -1.94596 1.60329
thorax -10.8623 -0.776412 2.6565
lowerneck 1.32492 -14.4032 -21.26
upperneck 23.2226 -21.6727 10.7238
head 10.8251 -11.2324 4.64263
rclavicle 1.68967e-015 1.11319e-014
rhumerus 26.9413 -76.5475 -29.3173
rradius 26.5733
rwrist -17.3795
rhand -2.71632 11.1934
rfingers 7.12502
rthumb 22.9862 -17.4561
lclavicle 1.68967e-015 1.11319e-014
lhumerus -26.2145 66.2828 -20.1018
lradius 33.3196
lwrist 35.5347
lhand 2.23013 19.3314
lfingers 7.12502
lthumb 27.7247 47.3073
rfemur -1.91664 11.0986 15.3673
rtibia 22.2661
rfoot -16.4155 -14.3372
rtoes -14.9036
lfemur 2.75628 -8.09866 -20.1425
ltibia 14.169
lfoot -13.9587 8.42307
ltoes -9.10278
